#N canvas 179 204 810 455 12;
#N canvas 564 192 450 300 log2 0;
#X obj 192 33 inlet;
#X obj 192 134 /;
#X floatatom 192 158 5 0 0 0 - - - 0;
#X obj 192 110 log;
#X msg 192 86 2;
#X obj 192 181 outlet;
#X obj 192 63 t b f;
#X connect 0 0 6 0;
#X connect 1 0 2 0;
#X connect 2 0 5 0;
#X connect 3 0 1 0;
#X connect 4 0 3 0;
#X connect 6 0 4 0;
#X connect 6 1 1 1;
#X restore 248 129 pd log2;
#X obj 217 338 outlet;
#X text 119 7 duration;
#X floatatom 248 156 5 0 0 0 - - - 0;
#X text 306 130 half life;
#X floatatom 118 56 5 0 0 0 - - - 0;
#X obj 101 183 line;
#X obj 118 86 * 1000;
#X floatatom 217 312 18 0 0 0 - - - 0;
#X floatatom 248 105 5 0 0 0 - - - 0;
#X obj 217 283 exp;
#X obj 216 261 *;
#X floatatom 267 265 5 0 0 0 - - - 0;
#X obj 248 179 * -1;
#X msg 100 158 0 \, 100 \$1;
#X obj 100 124 f;
#X obj 21 27 inlet;
#X obj 117 32 inlet;
#X obj 248 51 loadbang;
#X msg 248 75 10;
#X obj 300 77 r \$0-halflife;
#X text 383 168 This sounds closer to the actual implementation of the exponetial decay. Though not the same math as the Audacity nyquist plugin \, I think it sounds better.;
#X connect 0 0 3 0;
#X connect 3 0 13 0;
#X connect 5 0 7 0;
#X connect 6 0 11 0;
#X connect 7 0 15 1;
#X connect 8 0 1 0;
#X connect 9 0 0 0;
#X connect 10 0 8 0;
#X connect 11 0 10 0;
#X connect 13 0 11 1;
#X connect 14 0 6 0;
#X connect 15 0 14 0;
#X connect 16 0 15 0;
#X connect 17 0 5 0;
#X connect 18 0 19 0;
#X connect 19 0 9 0;
#X connect 20 0 9 0;
