#N canvas 208 233 934 686 12;
#X obj 258 183 /;
#X obj 297 163 log;
#X msg 297 137 2;
#X obj 258 136 log;
#X floatatom 258 90 5 0 0 0 - - - 0;
#X obj 258 112 t f b;
#X floatatom 258 207 5 0 0 0 - - - 0;
#X obj 258 310 pow;
#X obj 258 255 t b f;
#X msg 258 279 2;
#X obj 258 229 - 3;
#X floatatom 258 334 5 0 0 0 - - - 0;
#X obj 258 355 * -1;
#X text 352 113 This is audacity's algo;
#X obj 239 403 exp;
#X obj 240 379 *;
#X obj 122 308 line;
#X floatatom 239 427 5 0 0 0 - - - 0;
#X obj 258 65 inlet;
#X obj 193 204 * 1000;
#X obj 175 228 f;
#X obj 122 64 inlet;
#X obj 239 454 outlet;
#X obj 140 179 r \$0-ny-scale;
#X floatatom 140 203 5 0 0 0 - - - 0;
#X obj 422 367 s \$0-ny-scale;
#X floatatom 422 346 5 0 0 0 - - - 0;
#X obj 422 323 /;
#X obj 414 259 t b f;
#X obj 122 226 f;
#X msg 122 281 0 \, \$1 \$2;
#X obj 122 254 pack 0 0;
#X msg 406 293 90;
#X connect 0 0 6 0;
#X connect 1 0 0 1;
#X connect 2 0 1 0;
#X connect 3 0 0 0;
#X connect 4 0 5 0;
#X connect 4 0 28 0;
#X connect 5 0 3 0;
#X connect 5 1 2 0;
#X connect 6 0 10 0;
#X connect 7 0 11 0;
#X connect 8 0 9 0;
#X connect 8 1 7 1;
#X connect 9 0 7 0;
#X connect 10 0 8 0;
#X connect 11 0 12 0;
#X connect 12 0 15 1;
#X connect 14 0 17 0;
#X connect 15 0 14 0;
#X connect 16 0 15 0;
#X connect 17 0 22 0;
#X connect 18 0 4 0;
#X connect 18 0 19 0;
#X connect 19 0 20 1;
#X connect 20 0 31 1;
#X connect 21 0 20 0;
#X connect 21 0 29 0;
#X connect 23 0 24 0;
#X connect 24 0 29 1;
#X connect 26 0 25 0;
#X connect 27 0 26 0;
#X connect 28 0 32 0;
#X connect 28 1 27 1;
#X connect 29 0 31 0;
#X connect 30 0 16 0;
#X connect 31 0 30 0;
#X connect 32 0 27 0;
