#N canvas 570 65 878 470 12;
#X obj 48 251 output~;
#X obj 241 200 bng 19 250 50 0 empty empty empty 0 -10 0 12 #fcfcfc #000000 #000000;
#X floatatom 48 47 5 50 2000 1 freq freq - 0;
#X floatatom 80 71 5 0.1 60 1 decay decay - 0;
#X floatatom 112 95 5 100 5000 1 cf cf - 0;
#X floatatom 144 117 5 10 1000 1 bw bw - 0;
#X floatatom 176 140 5 0 100 1 noise noise - 0;
#X floatatom 208 163 5 0 1 1 gain gain - 0;
#X text 263 199 Press Here;
#X msg 362 54 \; freq 100 \; decay 2 \; cf 500 \; bw 400 \; noise 25 \; gain 0.8 \;;
#X text 361 33 default;
#X msg 361 192 \; freq 200 \; decay 0.1 \; cf 500 \; bw 200 \; noise 50 \; gain 1 \;;
#X obj 48 227 risset~ 100 2 500 400 25 0.8;
#X connect 1 0 12 6;
#X connect 2 0 12 0;
#X connect 3 0 12 1;
#X connect 4 0 12 2;
#X connect 5 0 12 3;
#X connect 6 0 12 4;
#X connect 7 0 12 5;
#X connect 12 0 0 0;
