#N canvas 454 67 1191 857 12;
#X obj 340 195 osc~;
#X obj 407 195 osc~;
#X obj 473 195 osc~;
#X obj 541 195 osc~;
#X obj 98 152 noise~;
#X obj 41 384 osc~;
#X obj 52 79 inlet freq;
#X obj 152 79 inlet decay;
#X obj 255 78 inlet cf;
#X obj 340 77 inlet bw;
#X obj 410 76 inlet noise;
#X obj 502 76 inlet gain;
#X obj 221 775 *~;
#X obj 221 806 outlet~;
#X obj 499 503 bng 19 250 50 0 empty empty empty 0 -10 0 12 #fcfcfc #000000 #000000;
#X floatatom 565 503 5 0 0 0 - - - 0;
#X floatatom 499 552 5 0 0 0 - - - 0;
#X text 609 503 time in secs;
#X obj 340 171 * 1;
#X obj 407 171 * 1.6;
#X obj 473 171 * 2.2;
#X obj 541 171 * 2.6;
#X obj 473 218 *~ 0.333;
#X obj 407 218 *~ 0.25;
#X obj 541 218 *~ 0.25;
#X obj 341 353 *~;
#X obj 512 361 -;
#X msg 512 337 1;
#X obj 512 313 t b f;
#X floatatom 120 205 5 0 0 0 - - - 0;
#X obj 98 384 *~;
#X obj 512 408 line~;
#X obj 128 349 line~;
#X msg 128 326 \$1 50;
#X obj 80 414 *~;
#X text 408 134 low-note;
#X obj 249 747 line~;
#X obj 289 471 bng 19 250 50 0 empty empty empty 0 -10 0 12 #fcfcfc #000000 #000000;
#X floatatom 345 469 5 0 0 0 - - - 0;
#X floatatom 289 520 5 0 0 0 - - - 0;
#X obj 345 445 * 0.5;
#X text 384 470 decay2;
#X obj 221 482 +~;
#X obj 238 572 line~;
#X obj 221 596 *~;
#X obj 221 673 +~;
#X obj 336 570 osc~;
#X obj 336 644 *~;
#X obj 354 616 line~;
#X text 564 452 DECAY;
#X text 493 136 rdrum;
#X text 103 128 noise-band;
#X obj 336 688 *~;
#X obj 581 75 inlet go;
#X text 56 53 50-2000;
#X text 154 57 .1-60 (secs);
#X text 260 55 100-5000;
#X text 343 54 10-1000;
#X text 408 54 0-100;
#X text 511 55 0-1;
#X text 592 53 bang;
#X text 133 372 NOISE;
#X text 34 311 CF;
#X text 175 180 BW, f 5;
#X obj 512 290 / 100;
#X obj 128 304 / 100;
#X text 62 256 pink;
#X obj 52 103 s \$0-freq;
#X obj 152 103 s \$0-decay;
#X obj 255 102 s \$0-cf;
#X obj 340 101 s \$0-bw;
#X obj 410 100 s \$0-noise;
#X obj 502 100 s \$0-gain;
#X obj 581 99 s \$0-go;
#X obj 120 182 r \$0-bw;
#X obj 128 280 r \$0-noise;
#X obj 41 336 r \$0-cf;
#X obj 340 136 r \$0-freq;
#X obj 345 423 r \$0-decay;
#X obj 499 475 r \$0-go;
#X obj 565 474 r \$0-decay;
#X obj 336 545 r \$0-freq;
#X obj 573 389 s \$0-tone-gain;
#X obj 512 266 r \$0-noise;
#X obj 369 645 r \$0-tone-gain;
#X obj 249 682 r \$0-gain;
#X obj 590 155 r \$0-go;
#X text 683 72 This is an emulation of the Risset Drum generator in Audacity. It was translate from LISP to pd by Robert Esler. The original was written by Steven Jones and updated by Steve Daulton 2012 and 2015;
#X text 437 20 Risset Drum Generator;
#X text 684 243 Original code is here: https://github.com/audacity/audacity/blob/master/plug-ins/rissetdrum.ny;
#X obj 512 759 s \$0-freq;
#X obj 612 759 s \$0-decay;
#X obj 715 759 s \$0-cf;
#X obj 794 759 s \$0-bw;
#X obj 870 758 s \$0-noise;
#X obj 962 758 s \$0-gain;
#X text 592 666 These will pass arguments to our synthesizer;
#X obj 512 733 f \$1;
#X obj 612 733 f \$2;
#X obj 715 733 f \$3;
#X obj 794 735 f \$4;
#X obj 870 733 f \$5;
#X obj 962 733 f \$6;
#X obj 512 704 loadbang;
#X msg 590 177 -0.25;
#X floatatom 258 703 5 0 0 0 - - - 0;
#X floatatom 41 360 5 0 0 0 - - - 0;
#X obj 341 218 *~ 0.167;
#X floatatom 369 669 5 0 0 0 - - - 0;
#X obj 289 445 r \$0-go;
#X obj 98 256 butterworth3~;
#X floatatom 142 228 5 0 0 0 - \$0-bw-hp - 0;
#X obj 703 354 loadbang;
#X msg 703 378 5000;
#X obj 703 406 s \$0-bw-hp;
#X text 744 377 goes to the butterworth3~ hp;
#X obj 564 604 percussion-env~;
#X obj 499 528 exp-dec~;
#X msg 238 549 \$1 1;
#X msg 512 385 \$1 5;
#X msg 354 593 \$1 1;
#X msg 249 724 \$1 5;
#X obj 289 494 exp-dec~;
#X text 678 604 <- this is Audacity's actual exp-dec alog;
#X text 684 144 It takes filtered noise \, modulated by a osc~ \, and a band of four sinusoidal harmonics \, adds them together \, and uses an two exponential decay envelopes \, one for the entire envelope and one at 1/2 the original. There is a single sine component added at the end which adds the "tone" to the overall envelope.;
#X connect 0 0 107 0;
#X connect 1 0 23 0;
#X connect 2 0 22 0;
#X connect 3 0 24 0;
#X connect 4 0 110 0;
#X connect 5 0 34 0;
#X connect 6 0 67 0;
#X connect 7 0 68 0;
#X connect 8 0 69 0;
#X connect 9 0 70 0;
#X connect 10 0 71 0;
#X connect 11 0 72 0;
#X connect 12 0 13 0;
#X connect 14 0 117 0;
#X connect 15 0 117 1;
#X connect 16 0 120 0;
#X connect 18 0 0 0;
#X connect 19 0 1 0;
#X connect 20 0 2 0;
#X connect 21 0 3 0;
#X connect 22 0 25 0;
#X connect 23 0 25 0;
#X connect 24 0 25 0;
#X connect 25 0 42 1;
#X connect 26 0 119 0;
#X connect 26 0 82 0;
#X connect 27 0 26 0;
#X connect 28 0 27 0;
#X connect 28 1 26 1;
#X connect 29 0 110 1;
#X connect 30 0 34 1;
#X connect 31 0 25 1;
#X connect 32 0 30 1;
#X connect 33 0 32 0;
#X connect 34 0 42 0;
#X connect 36 0 12 1;
#X connect 37 0 122 0;
#X connect 38 0 122 1;
#X connect 39 0 118 0;
#X connect 40 0 38 0;
#X connect 42 0 44 0;
#X connect 43 0 44 1;
#X connect 44 0 45 0;
#X connect 45 0 12 0;
#X connect 46 0 47 0;
#X connect 47 0 52 0;
#X connect 48 0 47 1;
#X connect 52 0 45 1;
#X connect 53 0 73 0;
#X connect 64 0 28 0;
#X connect 65 0 33 0;
#X connect 74 0 29 0;
#X connect 75 0 65 0;
#X connect 76 0 106 0;
#X connect 77 0 18 0;
#X connect 77 0 19 0;
#X connect 77 0 20 0;
#X connect 77 0 21 0;
#X connect 78 0 40 0;
#X connect 79 0 14 0;
#X connect 80 0 15 0;
#X connect 81 0 46 0;
#X connect 83 0 64 0;
#X connect 84 0 108 0;
#X connect 85 0 121 0;
#X connect 85 0 105 0;
#X connect 86 0 104 0;
#X connect 97 0 90 0;
#X connect 98 0 91 0;
#X connect 99 0 92 0;
#X connect 100 0 93 0;
#X connect 101 0 94 0;
#X connect 102 0 95 0;
#X connect 103 0 97 0;
#X connect 103 0 98 0;
#X connect 103 0 99 0;
#X connect 103 0 100 0;
#X connect 103 0 101 0;
#X connect 103 0 102 0;
#X connect 104 0 0 1;
#X connect 104 0 1 1;
#X connect 104 0 2 1;
#X connect 104 0 3 1;
#X connect 106 0 5 0;
#X connect 107 0 25 0;
#X connect 108 0 52 1;
#X connect 109 0 37 0;
#X connect 110 0 30 0;
#X connect 111 0 110 2;
#X connect 112 0 113 0;
#X connect 113 0 114 0;
#X connect 117 0 16 0;
#X connect 118 0 43 0;
#X connect 119 0 31 0;
#X connect 120 0 48 0;
#X connect 121 0 36 0;
#X connect 122 0 39 0;
